<?xml version="1.0" encoding="utf-8"?>
<!DOCTYPE svg PUBLIC "-//W3C//DTD SVG 1.1//EN" "http://www.w3.org/Graphics/SVG/1.1/DTD/svg11.dtd">
<svg version="1.1" xmlns="http://www.w3.org/2000/svg" xmlns:xlink="http://www.w3.org/1999/xlink" xmlns:xml="http://www.w3.org/XML/1998/namespace" width="660" height="720" shape-rendering="crispEdges" baseProfile="full">
  <rect x="0" y="0" width="660" height="660" style="fill:white;" />
  <rect x="0" y="0" width="140" height="20" style="fill:black;" />
  <rect x="180" y="0" width="20" height="40" style="fill:black;" />
  <rect x="220" y="0" width="40" height="20" style="fill:black;" />
  <rect x="320" y="0" width="40" height="20" style="fill:black;" />
  <rect x="380" y="0" width="40" height="20" style="fill:black;" />
  <rect x="460" y="0" width="40" height="20" style="fill:black;" />
  <rect x="520" y="0" width="140" height="20" style="fill:black;" />
  <rect x="0" y="20" width="20" height="100" style="fill:black;" />
  <rect x="120" y="20" width="20" height="100" style="fill:black;" />
  <rect x="240" y="20" width="20" height="40" style="fill:black;" />
  <rect x="300" y="20" width="40" height="20" style="fill:black;" />
  <rect x="400" y="20" width="20" height="20" style="fill:black;" />
  <rect x="440" y="20" width="20" height="20" style="fill:black;" />
  <rect x="520" y="20" width="20" height="100" style="fill:black;" />
  <rect x="640" y="20" width="20" height="100" style="fill:black;" />
  <rect x="40" y="40" width="60" height="60" style="fill:black;" />
  <rect x="160" y="40" width="20" height="20" style="fill:black;" />
  <rect x="280" y="40" width="40" height="20" style="fill:black;" />
  <rect x="400" y="40" width="100" height="20" style="fill:black;" />
  <rect x="560" y="40" width="60" height="60" style="fill:black;" />
  <rect x="160" y="60" width="80" height="20" style="fill:black;" />
  <rect x="360" y="60" width="40" height="20" style="fill:black;" />
  <rect x="440" y="60" width="20" height="20" style="fill:black;" />
  <rect x="480" y="60" width="20" height="20" style="fill:black;" />
  <rect x="160" y="80" width="40" height="20" style="fill:black;" />
  <rect x="240" y="80" width="20" height="20" style="fill:black;" />
  <rect x="280" y="80" width="60" height="20" style="fill:black;" />
  <rect x="360" y="80" width="60" height="20" style="fill:black;" />
  <rect x="460" y="80" width="20" height="20" style="fill:black;" />
  <rect x="160" y="100" width="100" height="20" style="fill:black;" />
  <rect x="280" y="100" width="20" height="40" style="fill:black;" />
  <rect x="400" y="100" width="60" height="20" style="fill:black;" />
  <rect x="0" y="120" width="140" height="20" style="fill:black;" />
  <rect x="160" y="120" width="20" height="40" style="fill:black;" />
  <rect x="200" y="120" width="20" height="40" style="fill:black;" />
  <rect x="240" y="120" width="20" height="40" style="fill:black;" />
  <rect x="320" y="120" width="20" height="40" style="fill:black;" />
  <rect x="360" y="120" width="20" height="20" style="fill:black;" />
  <rect x="400" y="120" width="20" height="20" style="fill:black;" />
  <rect x="440" y="120" width="20" height="20" style="fill:black;" />
  <rect x="480" y="120" width="20" height="40" style="fill:black;" />
  <rect x="520" y="120" width="140" height="20" style="fill:black;" />
  <rect x="360" y="140" width="100" height="20" style="fill:black;" />
  <rect x="0" y="160" width="20" height="40" style="fill:black;" />
  <rect x="40" y="160" width="100" height="20" style="fill:black;" />
  <rect x="180" y="160" width="20" height="20" style="fill:black;" />
  <rect x="220" y="160" width="80" height="20" style="fill:black;" />
  <rect x="340" y="160" width="20" height="20" style="fill:black;" />
  <rect x="380" y="160" width="20" height="20" style="fill:black;" />
  <rect x="440" y="160" width="40" height="20" style="fill:black;" />
  <rect x="520" y="160" width="100" height="20" style="fill:black;" />
  <rect x="40" y="180" width="20" height="20" style="fill:black;" />
  <rect x="100" y="180" width="20" height="20" style="fill:black;" />
  <rect x="140" y="180" width="80" height="20" style="fill:black;" />
  <rect x="260" y="180" width="20" height="20" style="fill:black;" />
  <rect x="320" y="180" width="80" height="20" style="fill:black;" />
  <rect x="460" y="180" width="20" height="20" style="fill:black;" />
  <rect x="520" y="180" width="40" height="20" style="fill:black;" />
  <rect x="580" y="180" width="40" height="20" style="fill:black;" />
  <rect x="640" y="180" width="20" height="20" style="fill:black;" />
  <rect x="40" y="200" width="100" height="20" style="fill:black;" />
  <rect x="180" y="200" width="20" height="20" style="fill:black;" />
  <rect x="240" y="200" width="80" height="20" style="fill:black;" />
  <rect x="340" y="200" width="20" height="20" style="fill:black;" />
  <rect x="400" y="200" width="20" height="20" style="fill:black;" />
  <rect x="440" y="200" width="20" height="20" style="fill:black;" />
  <rect x="480" y="200" width="60" height="20" style="fill:black;" />
  <rect x="560" y="200" width="20" height="20" style="fill:black;" />
  <rect x="600" y="200" width="20" height="20" style="fill:black;" />
  <rect x="0" y="220" width="20" height="20" style="fill:black;" />
  <rect x="40" y="220" width="20" height="20" style="fill:black;" />
  <rect x="80" y="220" width="20" height="20" style="fill:black;" />
  <rect x="160" y="220" width="20" height="40" style="fill:black;" />
  <rect x="200" y="220" width="20" height="40" style="fill:black;" />
  <rect x="240" y="220" width="40" height="20" style="fill:black;" />
  <rect x="300" y="220" width="80" height="20" style="fill:black;" />
  <rect x="400" y="220" width="40" height="20" style="fill:black;" />
  <rect x="460" y="220" width="20" height="20" style="fill:black;" />
  <rect x="520" y="220" width="20" height="20" style="fill:black;" />
  <rect x="560" y="220" width="100" height="20" style="fill:black;" />
  <rect x="20" y="240" width="20" height="20" style="fill:black;" />
  <rect x="100" y="240" width="40" height="20" style="fill:black;" />
  <rect x="240" y="240" width="20" height="20" style="fill:black;" />
  <rect x="280" y="240" width="20" height="20" style="fill:black;" />
  <rect x="320" y="240" width="20" height="20" style="fill:black;" />
  <rect x="440" y="240" width="20" height="20" style="fill:black;" />
  <rect x="480" y="240" width="40" height="20" style="fill:black;" />
  <rect x="540" y="240" width="60" height="20" style="fill:black;" />
  <rect x="20" y="260" width="60" height="20" style="fill:black;" />
  <rect x="100" y="260" width="20" height="20" style="fill:black;" />
  <rect x="140" y="260" width="20" height="20" style="fill:black;" />
  <rect x="220" y="260" width="40" height="20" style="fill:black;" />
  <rect x="300" y="260" width="20" height="20" style="fill:black;" />
  <rect x="340" y="260" width="80" height="20" style="fill:black;" />
  <rect x="460" y="260" width="20" height="20" style="fill:black;" />
  <rect x="500" y="260" width="60" height="20" style="fill:black;" />
  <rect x="580" y="260" width="20" height="20" style="fill:black;" />
  <rect x="620" y="260" width="40" height="20" style="fill:black;" />
  <rect x="0" y="280" width="100" height="20" style="fill:black;" />
  <rect x="120" y="280" width="40" height="20" style="fill:black;" />
  <rect x="180" y="280" width="20" height="20" style="fill:black;" />
  <rect x="240" y="280" width="20" height="20" style="fill:black;" />
  <rect x="280" y="280" width="60" height="20" style="fill:black;" />
  <rect x="360" y="280" width="20" height="20" style="fill:black;" />
  <rect x="400" y="280" width="40" height="20" style="fill:black;" />
  <rect x="500" y="280" width="40" height="20" style="fill:black;" />
  <rect x="580" y="280" width="60" height="20" style="fill:black;" />
  <rect x="20" y="300" width="20" height="20" style="fill:black;" />
  <rect x="60" y="300" width="60" height="20" style="fill:black;" />
  <rect x="160" y="300" width="20" height="20" style="fill:black;" />
  <rect x="220" y="300" width="20" height="20" style="fill:black;" />
  <rect x="300" y="300" width="20" height="40" style="fill:black;" />
  <rect x="360" y="300" width="40" height="20" style="fill:black;" />
  <rect x="420" y="300" width="120" height="20" style="fill:black;" />
  <rect x="600" y="300" width="20" height="20" style="fill:black;" />
  <rect x="0" y="320" width="60" height="20" style="fill:black;" />
  <rect x="120" y="320" width="20" height="20" style="fill:black;" />
  <rect x="160" y="320" width="40" height="20" style="fill:black;" />
  <rect x="220" y="320" width="40" height="20" style="fill:black;" />
  <rect x="340" y="320" width="20" height="20" style="fill:black;" />
  <rect x="440" y="320" width="20" height="20" style="fill:black;" />
  <rect x="500" y="320" width="20" height="20" style="fill:black;" />
  <rect x="540" y="320" width="60" height="20" style="fill:black;" />
  <rect x="640" y="320" width="20" height="20" style="fill:black;" />
  <rect x="0" y="340" width="120" height="20" style="fill:black;" />
  <rect x="140" y="340" width="80" height="20" style="fill:black;" />
  <rect x="240" y="340" width="60" height="20" style="fill:black;" />
  <rect x="320" y="340" width="20" height="20" style="fill:black;" />
  <rect x="360" y="340" width="60" height="20" style="fill:black;" />
  <rect x="460" y="340" width="20" height="20" style="fill:black;" />
  <rect x="520" y="340" width="40" height="20" style="fill:black;" />
  <rect x="580" y="340" width="80" height="20" style="fill:black;" />
  <rect x="0" y="360" width="20" height="140" style="fill:black;" />
  <rect x="80" y="360" width="20" height="20" style="fill:black;" />
  <rect x="120" y="360" width="40" height="20" style="fill:black;" />
  <rect x="200" y="360" width="40" height="20" style="fill:black;" />
  <rect x="260" y="360" width="80" height="20" style="fill:black;" />
  <rect x="360" y="360" width="20" height="20" style="fill:black;" />
  <rect x="420" y="360" width="20" height="20" style="fill:black;" />
  <rect x="540" y="360" width="40" height="20" style="fill:black;" />
  <rect x="600" y="360" width="40" height="20" style="fill:black;" />
  <rect x="40" y="380" width="20" height="40" style="fill:black;" />
  <rect x="80" y="380" width="40" height="20" style="fill:black;" />
  <rect x="140" y="380" width="40" height="20" style="fill:black;" />
  <rect x="200" y="380" width="20" height="20" style="fill:black;" />
  <rect x="240" y="380" width="40" height="20" style="fill:black;" />
  <rect x="320" y="380" width="20" height="20" style="fill:black;" />
  <rect x="400" y="380" width="60" height="20" style="fill:black;" />
  <rect x="500" y="380" width="140" height="20" style="fill:black;" />
  <rect x="100" y="400" width="40" height="20" style="fill:black;" />
  <rect x="180" y="400" width="20" height="20" style="fill:black;" />
  <rect x="220" y="400" width="20" height="20" style="fill:black;" />
  <rect x="260" y="400" width="20" height="20" style="fill:black;" />
  <rect x="360" y="400" width="20" height="20" style="fill:black;" />
  <rect x="440" y="400" width="20" height="20" style="fill:black;" />
  <rect x="500" y="400" width="20" height="20" style="fill:black;" />
  <rect x="560" y="400" width="40" height="20" style="fill:black;" />
  <rect x="640" y="400" width="20" height="40" style="fill:black;" />
  <rect x="100" y="420" width="20" height="20" style="fill:black;" />
  <rect x="140" y="420" width="60" height="20" style="fill:black;" />
  <rect x="240" y="420" width="100" height="20" style="fill:black;" />
  <rect x="380" y="420" width="100" height="20" style="fill:black;" />
  <rect x="520" y="420" width="40" height="20" style="fill:black;" />
  <rect x="600" y="420" width="20" height="20" style="fill:black;" />
  <rect x="40" y="440" width="40" height="40" style="fill:black;" />
  <rect x="120" y="440" width="60" height="20" style="fill:black;" />
  <rect x="200" y="440" width="20" height="20" style="fill:black;" />
  <rect x="240" y="440" width="20" height="20" style="fill:black;" />
  <rect x="440" y="440" width="20" height="20" style="fill:black;" />
  <rect x="500" y="440" width="80" height="20" style="fill:black;" />
  <rect x="620" y="440" width="20" height="20" style="fill:black;" />
  <rect x="160" y="460" width="20" height="20" style="fill:black;" />
  <rect x="220" y="460" width="60" height="20" style="fill:black;" />
  <rect x="320" y="460" width="20" height="20" style="fill:black;" />
  <rect x="380" y="460" width="180" height="20" style="fill:black;" />
  <rect x="600" y="460" width="40" height="20" style="fill:black;" />
  <rect x="60" y="480" width="40" height="20" style="fill:black;" />
  <rect x="120" y="480" width="80" height="20" style="fill:black;" />
  <rect x="220" y="480" width="80" height="20" style="fill:black;" />
  <rect x="340" y="480" width="80" height="20" style="fill:black;" />
  <rect x="440" y="480" width="20" height="20" style="fill:black;" />
  <rect x="480" y="480" width="120" height="20" style="fill:black;" />
  <rect x="620" y="480" width="20" height="20" style="fill:black;" />
  <rect x="160" y="500" width="20" height="20" style="fill:black;" />
  <rect x="200" y="500" width="40" height="20" style="fill:black;" />
  <rect x="260" y="500" width="20" height="20" style="fill:black;" />
  <rect x="320" y="500" width="100" height="20" style="fill:black;" />
  <rect x="480" y="500" width="20" height="20" style="fill:black;" />
  <rect x="560" y="500" width="20" height="40" style="fill:black;" />
  <rect x="600" y="500" width="60" height="20" style="fill:black;" />
  <rect x="0" y="520" width="140" height="20" style="fill:black;" />
  <rect x="180" y="520" width="20" height="20" style="fill:black;" />
  <rect x="220" y="520" width="100" height="20" style="fill:black;" />
  <rect x="340" y="520" width="20" height="20" style="fill:black;" />
  <rect x="400" y="520" width="20" height="20" style="fill:black;" />
  <rect x="460" y="520" width="40" height="40" style="fill:black;" />
  <rect x="520" y="520" width="20" height="20" style="fill:black;" />
  <rect x="600" y="520" width="40" height="20" style="fill:black;" />
  <rect x="0" y="540" width="20" height="100" style="fill:black;" />
  <rect x="120" y="540" width="20" height="100" style="fill:black;" />
  <rect x="160" y="540" width="20" height="40" style="fill:black;" />
  <rect x="240" y="540" width="40" height="20" style="fill:black;" />
  <rect x="300" y="540" width="20" height="20" style="fill:black;" />
  <rect x="340" y="540" width="40" height="20" style="fill:black;" />
  <rect x="420" y="540" width="20" height="20" style="fill:black;" />
  <rect x="560" y="540" width="80" height="20" style="fill:black;" />
  <rect x="40" y="560" width="60" height="60" style="fill:black;" />
  <rect x="220" y="560" width="20" height="20" style="fill:black;" />
  <rect x="280" y="560" width="20" height="20" style="fill:black;" />
  <rect x="320" y="560" width="20" height="20" style="fill:black;" />
  <rect x="380" y="560" width="20" height="20" style="fill:black;" />
  <rect x="440" y="560" width="20" height="20" style="fill:black;" />
  <rect x="480" y="560" width="120" height="20" style="fill:black;" />
  <rect x="160" y="580" width="60" height="20" style="fill:black;" />
  <rect x="240" y="580" width="80" height="20" style="fill:black;" />
  <rect x="340" y="580" width="60" height="20" style="fill:black;" />
  <rect x="480" y="580" width="40" height="20" style="fill:black;" />
  <rect x="560" y="580" width="20" height="20" style="fill:black;" />
  <rect x="600" y="580" width="60" height="20" style="fill:black;" />
  <rect x="160" y="600" width="20" height="20" style="fill:black;" />
  <rect x="200" y="600" width="20" height="20" style="fill:black;" />
  <rect x="240" y="600" width="20" height="20" style="fill:black;" />
  <rect x="280" y="600" width="60" height="20" style="fill:black;" />
  <rect x="400" y="600" width="20" height="20" style="fill:black;" />
  <rect x="440" y="600" width="60" height="20" style="fill:black;" />
  <rect x="520" y="600" width="40" height="20" style="fill:black;" />
  <rect x="600" y="600" width="20" height="40" style="fill:black;" />
  <rect x="220" y="620" width="60" height="20" style="fill:black;" />
  <rect x="300" y="620" width="20" height="40" style="fill:black;" />
  <rect x="400" y="620" width="40" height="20" style="fill:black;" />
  <rect x="460" y="620" width="20" height="20" style="fill:black;" />
  <rect x="500" y="620" width="20" height="20" style="fill:black;" />
  <rect x="560" y="620" width="20" height="20" style="fill:black;" />
  <rect x="0" y="640" width="140" height="20" style="fill:black;" />
  <rect x="160" y="640" width="40" height="20" style="fill:black;" />
  <rect x="220" y="640" width="40" height="20" style="fill:black;" />
  <rect x="340" y="640" width="20" height="20" style="fill:black;" />
  <rect x="440" y="640" width="80" height="20" style="fill:black;" />
  <rect x="540" y="640" width="20" height="20" style="fill:black;" />
  <rect x="580" y="640" width="20" height="20" style="fill:black;" />
  <rect x="620" y="640" width="20" height="20" style="fill:black;" />
  <text x="0" y="700" font-family="sans-serif" font-size="20" style="fill:black;">https://odevs-ignite-the-holidays-2025.sessionize.com</text>
</svg>